PathFileType	4	(X/Y/Z)	C:/Users/opensim2020/Desktop/walking_exp_matlab/subject01_walking08_straight_04.trc																																																																																																																															
DataRate	CameraRate	NumFrames	NumMarkers	Units	OrigDataRate	OrigDataStartFrame	OrigNumFrames																																																																																																																											
100	100	5	43	mm	100	3851	256																																																																																																																											
Frame#	Time	LFHD			RFHD			LBHD			RBHD			C7			T10			CLAV			STRN			RBAK			LSHO			LUPA			LELB			LFRM			LWRA			LWRB			LFIN			RSHO			RUPA			RELB			RFRM			RWRA			RWRB			RFIN			LASI			RASI			LPSI			RPSI			LTHI			LKNE			LTIB			LANK			LHEE			LTOE			RTHI			RKNE			RTIB			RANK			RHEE			RTOE			*39			*40			*41			*42		
		X1	Y1	Z1	X2	Y2	Z2	X3	Y3	Z3	X4	Y4	Z4	X5	Y5	Z5	X6	Y6	Z6	X7	Y7	Z7	X8	Y8	Z8	X9	Y9	Z9	X10	Y10	Z10	X11	Y11	Z11	X12	Y12	Z12	X13	Y13	Z13	X14	Y14	Z14	X15	Y15	Z15	X16	Y16	Z16	X17	Y17	Z17	X18	Y18	Z18	X19	Y19	Z19	X20	Y20	Z20	X21	Y21	Z21	X22	Y22	Z22	X23	Y23	Z23	X24	Y24	Z24	X25	Y25	Z25	X26	Y26	Z26	X27	Y27	Z27	X28	Y28	Z28	X29	Y29	Z29	X30	Y30	Z30	X31	Y31	Z31	X32	Y32	Z32	X33	Y33	Z33	X34	Y34	Z34	X35	Y35	Z35	X36	Y36	Z36	X37	Y37	Z37	X38	Y38	Z38	X39	Y39	Z39	X40	Y40	Z40	X41	Y41	Z41	X42	Y42	Z42	X43	Y43	Z43
																																																																																																																																		
193	1.92	316.66818	1648.97681	-1556.66809	331.21341	1651.50952	-1443.27368	195.48691	1619.4187	-1548.73999	207.47011	1621.97571	-1427.87158	137.46448	1420.06763	-1506.04541	100.83661	1125.80042	-1492.87805	279.41403	1350.65222	-1506.74329	322.13928	1196.45825	-1516.45093	83.98978	1222.89526	-1428.0282	219.70824	1383.52136	-1667.56714	211.52193	1201.5011	-1757.87524	232.32915	1049.2998	-1769.42749	327.88342	982.69598	-1792.75171	461.05957	944.06128	-1773.28699	421.31735	904.82751	-1796.36133	502.08249	882.50757	-1808.22363	218.39093	1378.01697	-1353.79175	144.93114	1181.11438	-1257.73035	133.19717	1057.44849	-1256.8446	146.65268	938.23859	-1224.86707	215.30841	813.65094	-1238.8783	170.07132	819.55103	-1202.59705	198.86678	738.10626	-1203.19312	260.74628	917.27991	-1613.71765	286.18591	925.25525	-1397.70325	82.51778	930.11401	-1537.1571	100.5813	932.26056	-1393.65613	181.47153	586.68469	-1649.89197	147.98706	453.75897	-1630.79102	51.61401	289.8287	-1634.21106	-38.04937	90.33777	-1579.62146	-90.98515	71.54933	-1527.646	98.25725	32.17502	-1581.24268	310.4483	600.34418	-1326.37268	366.81454	455.81488	-1355.57947	367.79205	281.07166	-1342.97607	414.35254	76.66302	-1384.83423	381.29764	26.97357	-1435.89185	558.34363	77.77417	-1384.25793	323.07874	1686.34924	-1465.66638	-1973.17297	1023.32288	3101.89307	-2012.58691	1022.04004	3140.64111	NaN	NaN	NaN
194	1.93	323.50388	1648.46875	-1554.58154	338.10699	1651.02502	-1441.16931	202.30475	1618.7843	-1546.57092	214.44676	1621.35376	-1425.64099	144.54709	1419.26648	-1503.77722	108.84694	1124.76978	-1491.12964	286.77087	1350.14172	-1504.6311	329.86917	1196.15149	-1514.75256	91.82214	1221.71094	-1426.06018	226.86154	1383.27563	-1665.37927	218.91438	1201.45374	-1756.04797	239.40881	1049.16711	-1767.79773	335.01407	982.59601	-1791.1853	468.27951	944.24414	-1771.82678	428.53897	904.88293	-1794.98132	509.3255	882.67126	-1806.80859	226.1507	1377.30249	-1351.39087	152.24014	1180.21423	-1255.91174	140.67166	1056.4342	-1255.27612	154.13972	937.16132	-1223.44836	222.80722	812.6557	-1237.69263	177.53792	818.35236	-1201.39978	206.21989	736.97906	-1202.19006	269.14792	916.80487	-1612.76892	294.85202	924.56238	-1396.77527	90.89443	929.50543	-1535.86267	109.26097	931.42554	-1392.33313	188.61221	586.2793	-1649.15979	154.24312	453.49442	-1630.3877	55.85047	290.677	-1633.96509	-36.74301	92.35802	-1580.11169	-90.03259	74.49438	-1528.36743	98.45506	32.19021	-1581.27551	318.58676	599.45801	-1326.82788	373.86603	454.25549	-1355.23035	372.9903	279.43362	-1343.62354	416.62653	75.19714	-1385.98096	381.63843	27.09556	-1436.87354	560.6123	71.46386	-1385.01807	330.01807	1685.86072	-1463.59644	-1973.10718	1023.8244	3101.98218	-2012.57336	1022.0578	3140.72681	NaN	NaN	NaN
195	1.94	330.37662	1648.24316	-1552.42664	345.06656	1650.75732	-1438.99292	209.22391	1618.34595	-1544.35266	221.37369	1620.87549	-1423.59155	151.5983	1418.50208	-1501.30115	116.88644	1123.86707	-1489.27905	294.09943	1349.70239	-1502.47534	337.66916	1195.9967	-1513.02612	99.58069	1220.69128	-1424.21375	234.0455	1383.09863	-1663.19421	226.07063	1201.37769	-1754.03906	246.44637	1049.03345	-1766.125	342.01944	982.47565	-1789.6217	475.24606	943.98053	-1770.27954	435.51901	904.7876	-1793.56433	516.34869	882.66492	-1805.40662	233.26616	1376.36902	-1349.30359	160.03555	1179.20081	-1253.85828	148.23933	1055.38696	-1253.53442	161.73923	936.09955	-1221.99744	230.28375	811.50354	-1236.50647	185.0825	817.14154	-1200.17126	214.05878	735.88666	-1201.1582	277.65616	916.28827	-1611.71167	303.35669	923.97296	-1395.86621	99.32092	928.88379	-1534.51245	117.88808	930.60718	-1390.7428	196.08199	585.79614	-1648.30127	160.75212	453.28622	-1629.65662	60.21444	291.76837	-1633.78894	-35.47997	94.68437	-1580.82385	-89.08913	77.63771	-1529.20178	98.58281	32.20806	-1581.37329	326.38284	598.9585	-1327.16858	381.02896	453.08142	-1354.94531	377.86932	278.20932	-1344.68445	419.08884	75.13536	-1386.5686	382.48779	27.8825	-1437.5752	563.05878	65.38195	-1384.98938	336.85049	1685.50415	-1461.39819	-1973.125	1023.55719	3101.823	-2012.59692	1022.15808	3140.69653	NaN	NaN	NaN
196	1.95	337.40652	1648.50647	-1550.15967	352.12097	1650.8844	-1436.70911	216.31154	1618.34558	-1542.03406	228.52068	1620.71069	-1421.28992	158.7697	1418.21265	-1498.87634	125.05729	1123.33557	-1487.5752	301.71881	1349.75647	-1500.35168	345.37152	1196.19275	-1511.203	107.39011	1219.91345	-1422.30603	241.23427	1383.15198	-1660.995	233.36426	1201.44092	-1752.02454	253.43597	1048.99817	-1764.34253	348.90091	982.32086	-1787.99988	482.02258	943.59418	-1768.70911	442.31543	904.5119	-1792.07092	523.02899	882.31866	-1803.94702	240.82666	1375.78455	-1346.94458	167.77707	1178.19543	-1251.7771	155.97594	1054.31787	-1251.76892	169.47902	934.96613	-1220.45667	238.20387	810.52844	-1235.42065	192.88148	816.09424	-1199.09778	222.04285	734.92926	-1200.06689	286.33066	915.78491	-1610.49255	311.79193	923.66284	-1394.82458	107.76864	928.41626	-1533.30859	126.36928	930.00128	-1389.19348	203.87527	585.32941	-1647.27136	167.9632	452.92862	-1628.7616	64.95892	292.99921	-1633.5127	-33.79031	97.32404	-1581.58411	-87.89577	81.42244	-1530.29138	98.9103	31.96778	-1581.2196	333.77597	599.04382	-1327.4281	388.5542	453.04395	-1354.82031	383.45432	277.99557	-1345.58008	422.50482	74.85524	-1386.55933	383.82465	29.13059	-1437.52283	565.70929	60.95216	-1384.797	343.70334	1685.50195	-1459.04968	-1973.04199	1023.77856	3101.90454	-2012.52954	1022.17792	3140.79639	NaN	NaN	NaN
197	1.96	344.54449	1648.91565	-1547.74988	359.40396	1651.18188	-1434.34631	223.48329	1618.77527	-1539.6488	235.74988	1620.98706	-1418.93787	166.20331	1418.31165	-1496.57556	133.20526	1123.1825	-1486.01746	309.09152	1350.01294	-1498.11865	353.19614	1196.62402	-1509.2533	115.03183	1219.57178	-1420.46436	248.44049	1383.45142	-1658.87878	240.53941	1201.66016	-1749.98889	260.4006	1049.12622	-1762.46826	355.62317	982.22449	-1786.33301	488.59271	943.0675	-1767.08777	448.75153	904.12787	-1790.50562	529.35645	881.79987	-1802.48999	248.24422	1375.51868	-1344.55957	175.48158	1177.45313	-1249.86206	163.89342	1053.40967	-1249.9928	177.44099	934.12061	-1218.84387	246.13051	809.65808	-1234.30151	200.86325	814.99463	-1197.90771	230.32558	734.15833	-1198.88989	295.02298	915.49182	-1609.23132	320.26971	923.55542	-1393.65295	116.2339	928.03339	-1532.14331	134.76019	929.75391	-1387.77783	212.04169	585.04376	-1646.17212	175.56883	452.77429	-1627.79968	69.99022	294.75833	-1633.40247	-31.80685	100.13929	-1582.07996	-86.22413	85.24907	-1530.91113	99.21632	32.15428	-1581.28687	341.52753	599.62927	-1326.88232	396.21994	453.85974	-1354.78662	389.87167	278.41086	-1345.4447	425.11536	74.77985	-1386.10962	385.31622	30.14857	-1437.07129	568.06201	56.64307	-1384.48547	350.62524	1685.79053	-1456.71179	-1973.20142	1023.51074	3101.87695	-2012.50208	1021.96027	3140.76001	NaN	NaN	NaN
